<svg xmlns="http://www.w3.org/2000/svg" viewBox="0 0 2048 2048"><defs><style>.cls-1{fill:#f0f1eb;}</style></defs><title>fpc_code_trademark_light</title><g id="Base"><path class="cls-1" d="M1024,0,0,1024,1024,2048,2048,1024ZM128,1024l896-896,896,896-896,896Z"/><polygon class="cls-1" points="1069.25 1746.75 1792 1024 1069.25 301.25 1069.25 429.25 1664 1024 1069.25 1618.75 1069.25 1746.75"/><polygon class="cls-1" points="1024 1792 1024 1792 1024 1792 1024 1792"/><polygon class="cls-1" points="978.75 1618.74 384 1024 978.75 429.25 978.75 301.25 256 1024 978.75 1746.74 978.75 1618.74"/></g><g id="Diagonal_C" data-name="Diagonal C"><polygon class="cls-1" points="1024 1408 640 1024 1024 640 1280 896 1344 832 1024 512 512 1024 1024 1536 1344 1216 1280 1152 1024 1408"/></g></svg>